<mxfile host="app.diagrams.net" agent="Mozilla/5.0 (Windows NT 10.0; Win64; x64) AppleWebKit/537.36 (KHTML, like Gecko) Chrome/131.0.0.0 Safari/537.36" version="26.0.2">
  <diagram name="Page-1" id="4kwymrOmj28YY_KKCrKc">
    <mxGraphModel dx="1114" dy="566" grid="1" gridSize="10" guides="1" tooltips="1" connect="1" arrows="1" fold="1" page="1" pageScale="1" pageWidth="850" pageHeight="1100" math="0" shadow="0">
      <root>
        <mxCell id="0" />
        <mxCell id="1" parent="0" />
        <mxCell id="L-AuENdWuAf9FQ6c1McB-7" value="" style="rounded=1;whiteSpace=wrap;html=1;" vertex="1" parent="1">
          <mxGeometry x="360" y="480" width="120" height="60" as="geometry" />
        </mxCell>
        <mxCell id="L-AuENdWuAf9FQ6c1McB-8" value="" style="rounded=1;whiteSpace=wrap;html=1;" vertex="1" parent="1">
          <mxGeometry x="650" y="300" width="120" height="60" as="geometry" />
        </mxCell>
        <mxCell id="L-AuENdWuAf9FQ6c1McB-9" value="" style="rounded=1;whiteSpace=wrap;html=1;" vertex="1" parent="1">
          <mxGeometry x="360" y="400" width="120" height="60" as="geometry" />
        </mxCell>
        <mxCell id="L-AuENdWuAf9FQ6c1McB-10" value="" style="rounded=1;whiteSpace=wrap;html=1;" vertex="1" parent="1">
          <mxGeometry x="360" y="300" width="120" height="60" as="geometry" />
        </mxCell>
        <mxCell id="L-AuENdWuAf9FQ6c1McB-11" value="" style="rounded=1;whiteSpace=wrap;html=1;" vertex="1" parent="1">
          <mxGeometry x="50" y="300" width="120" height="60" as="geometry" />
        </mxCell>
        <mxCell id="L-AuENdWuAf9FQ6c1McB-12" value="" style="rhombus;whiteSpace=wrap;html=1;" vertex="1" parent="1">
          <mxGeometry x="380" y="190" width="80" height="80" as="geometry" />
        </mxCell>
        <mxCell id="L-AuENdWuAf9FQ6c1McB-13" value="Start" style="ellipse;whiteSpace=wrap;html=1;" vertex="1" parent="1">
          <mxGeometry x="360" width="120" height="80" as="geometry" />
        </mxCell>
        <mxCell id="L-AuENdWuAf9FQ6c1McB-14" value="Order Coffee" style="rounded=1;whiteSpace=wrap;html=1;" vertex="1" parent="1">
          <mxGeometry x="360" y="110" width="120" height="60" as="geometry" />
        </mxCell>
        <mxCell id="L-AuENdWuAf9FQ6c1McB-15" value="" style="endArrow=classic;html=1;rounded=0;exitX=0.5;exitY=1;exitDx=0;exitDy=0;entryX=0.5;entryY=0;entryDx=0;entryDy=0;" edge="1" parent="1" source="L-AuENdWuAf9FQ6c1McB-13" target="L-AuENdWuAf9FQ6c1McB-14">
          <mxGeometry width="50" height="50" relative="1" as="geometry">
            <mxPoint x="385" y="140" as="sourcePoint" />
            <mxPoint x="435" y="90" as="targetPoint" />
          </mxGeometry>
        </mxCell>
        <mxCell id="L-AuENdWuAf9FQ6c1McB-16" value="" style="endArrow=classic;html=1;rounded=0;entryX=0.5;entryY=0;entryDx=0;entryDy=0;exitX=0.5;exitY=1;exitDx=0;exitDy=0;" edge="1" parent="1" source="L-AuENdWuAf9FQ6c1McB-12" target="L-AuENdWuAf9FQ6c1McB-10">
          <mxGeometry width="50" height="50" relative="1" as="geometry">
            <mxPoint x="400" y="320" as="sourcePoint" />
            <mxPoint x="450" y="270" as="targetPoint" />
          </mxGeometry>
        </mxCell>
        <mxCell id="L-AuENdWuAf9FQ6c1McB-18" value="" style="endArrow=classic;html=1;rounded=0;exitX=1;exitY=0.5;exitDx=0;exitDy=0;entryX=0.5;entryY=0;entryDx=0;entryDy=0;" edge="1" parent="1" source="L-AuENdWuAf9FQ6c1McB-12" target="L-AuENdWuAf9FQ6c1McB-8">
          <mxGeometry width="50" height="50" relative="1" as="geometry">
            <mxPoint x="400" y="320" as="sourcePoint" />
            <mxPoint x="450" y="270" as="targetPoint" />
            <Array as="points">
              <mxPoint x="710" y="230" />
            </Array>
          </mxGeometry>
        </mxCell>
        <mxCell id="L-AuENdWuAf9FQ6c1McB-19" value="" style="endArrow=classic;html=1;rounded=0;exitX=0;exitY=0.5;exitDx=0;exitDy=0;entryX=0.5;entryY=0;entryDx=0;entryDy=0;curved=1;" edge="1" parent="1" source="L-AuENdWuAf9FQ6c1McB-12" target="L-AuENdWuAf9FQ6c1McB-11">
          <mxGeometry width="50" height="50" relative="1" as="geometry">
            <mxPoint x="210" y="220" as="sourcePoint" />
            <mxPoint x="420" y="210" as="targetPoint" />
            <Array as="points">
              <mxPoint x="230" y="240" />
              <mxPoint x="160" y="260" />
            </Array>
          </mxGeometry>
        </mxCell>
        <mxCell id="L-AuENdWuAf9FQ6c1McB-20" value="" style="endArrow=classic;html=1;rounded=0;exitX=0.442;exitY=1.033;exitDx=0;exitDy=0;exitPerimeter=0;entryX=1;entryY=0.5;entryDx=0;entryDy=0;" edge="1" parent="1" source="L-AuENdWuAf9FQ6c1McB-8" target="L-AuENdWuAf9FQ6c1McB-9">
          <mxGeometry width="50" height="50" relative="1" as="geometry">
            <mxPoint x="400" y="320" as="sourcePoint" />
            <mxPoint x="450" y="270" as="targetPoint" />
          </mxGeometry>
        </mxCell>
        <mxCell id="L-AuENdWuAf9FQ6c1McB-22" value="" style="endArrow=classic;html=1;rounded=0;exitX=0.5;exitY=1;exitDx=0;exitDy=0;entryX=0.5;entryY=0;entryDx=0;entryDy=0;" edge="1" parent="1" source="L-AuENdWuAf9FQ6c1McB-14" target="L-AuENdWuAf9FQ6c1McB-12">
          <mxGeometry width="50" height="50" relative="1" as="geometry">
            <mxPoint x="400" y="220" as="sourcePoint" />
            <mxPoint x="450" y="170" as="targetPoint" />
          </mxGeometry>
        </mxCell>
        <mxCell id="L-AuENdWuAf9FQ6c1McB-23" value="" style="endArrow=classic;html=1;rounded=0;exitX=0.5;exitY=1;exitDx=0;exitDy=0;entryX=0.5;entryY=0;entryDx=0;entryDy=0;" edge="1" parent="1" source="L-AuENdWuAf9FQ6c1McB-10" target="L-AuENdWuAf9FQ6c1McB-9">
          <mxGeometry width="50" height="50" relative="1" as="geometry">
            <mxPoint x="430" y="280" as="sourcePoint" />
            <mxPoint x="400" y="380" as="targetPoint" />
          </mxGeometry>
        </mxCell>
        <mxCell id="L-AuENdWuAf9FQ6c1McB-25" value="Text" style="edgeLabel;html=1;align=center;verticalAlign=middle;resizable=0;points=[];" vertex="1" connectable="0" parent="1">
          <mxGeometry x="560" y="270" as="geometry" />
        </mxCell>
        <mxCell id="L-AuENdWuAf9FQ6c1McB-26" value="" style="endArrow=classic;html=1;rounded=0;entryX=0.5;entryY=0;entryDx=0;entryDy=0;" edge="1" parent="1">
          <mxGeometry width="50" height="50" relative="1" as="geometry">
            <mxPoint x="420" y="460" as="sourcePoint" />
            <mxPoint x="419.5" y="480" as="targetPoint" />
          </mxGeometry>
        </mxCell>
        <mxCell id="L-AuENdWuAf9FQ6c1McB-27" value="" style="endArrow=classic;html=1;rounded=0;exitX=0.442;exitY=1;exitDx=0;exitDy=0;exitPerimeter=0;entryX=0;entryY=0.5;entryDx=0;entryDy=0;curved=1;" edge="1" parent="1" source="L-AuENdWuAf9FQ6c1McB-11" target="L-AuENdWuAf9FQ6c1McB-9">
          <mxGeometry width="50" height="50" relative="1" as="geometry">
            <mxPoint x="400" y="320" as="sourcePoint" />
            <mxPoint x="450" y="270" as="targetPoint" />
            <Array as="points">
              <mxPoint x="150" y="410" />
              <mxPoint x="220" y="440" />
              <mxPoint x="270" y="440" />
              <mxPoint x="310" y="440" />
            </Array>
          </mxGeometry>
        </mxCell>
      </root>
    </mxGraphModel>
  </diagram>
</mxfile>
